<?xml version="1.0" encoding="UTF-8"?>
<svg version="1.1" xmlns="http://www.w3.org/2000/svg" width="1080" height="1350">
<path d="M0 0 C7.12746962 5.52337553 11.46968313 14.23781713 12.59375 23.08984375 C13.10487373 35.20773549 6.53136879 46.05188764 1.3125 56.5625 C0.535653 58.14206096 -0.24029863 59.72206257 -1.01538086 61.30249023 C-2.54639991 64.42340213 -4.08029836 67.54286705 -5.61669922 70.66113281 C-8.19644056 75.903083 -10.73388697 81.16473432 -13.25 86.4375 C-13.6728125 87.32203857 -14.095625 88.20657715 -14.53125 89.11791992 C-17.124464 94.55684002 -19.69075766 100.00806289 -22.24609375 105.46484375 C-23.55948013 108.26842415 -24.8732543 111.07182231 -26.1875 113.875 C-26.51995728 114.58412537 -26.85241455 115.29325073 -27.19494629 116.02386475 C-32.85697715 128.08906736 -38.64955691 140.08764283 -44.5 152.0625 C-44.9083609 152.89840668 -45.3167218 153.73431335 -45.73745728 154.59555054 C-47.32860548 157.85222852 -48.91987437 161.1088475 -50.51133728 164.3653717 C-56.52522372 176.67708239 -62.42703175 189.04066067 -68.23828125 201.44921875 C-69.55424315 204.25802095 -70.87064901 207.06661452 -72.1875 209.875 C-72.68645782 210.93923187 -72.68645782 210.93923187 -73.19549561 212.02496338 C-78.85733567 224.0898039 -84.64973635 236.08801011 -90.5 248.0625 C-90.9083609 248.89840668 -91.3167218 249.73431335 -91.73745728 250.59555054 C-93.32860548 253.85222852 -94.91987437 257.1088475 -96.51133728 260.3653717 C-102.67939201 272.99269782 -108.719362 285.67923259 -114.6953125 298.3984375 C-115.04952774 299.1521312 -115.40374298 299.90582489 -115.76869202 300.68235779 C-117.52567944 304.42156835 -119.28074113 308.16165914 -121.03198242 311.90356445 C-121.68405316 313.2937961 -122.3361516 314.68401474 -122.98828125 316.07421875 C-123.27232819 316.68288788 -123.55637512 317.29155701 -123.84902954 317.91867065 C-125.77557519 322.02100109 -127.78112538 326.08013073 -129.81095886 330.13240051 C-130.6195348 331.74728221 -130.6195348 331.74728221 -131.44444561 333.39478779 C-131.85465356 334.21325782 -132.26486151 335.03172785 -132.6875 335.875 C-131.89034734 335.87646656 -131.09319468 335.87793312 -130.27188587 335.87944412 C-110.83124526 335.91657531 -91.3907834 335.97567343 -71.950284 336.05890274 C-62.54880315 336.0986288 -53.14740522 336.13105387 -43.74584961 336.14599609 C-35.54674586 336.15904606 -27.34782507 336.18609564 -19.14882439 336.22961307 C-14.81174605 336.25215297 -10.47489273 336.2679152 -6.13775063 336.26688385 C-2.04593441 336.26613279 2.04538579 336.28426051 6.13707352 336.31616783 C7.62965567 336.32460707 9.12229385 336.32645794 10.61488914 336.32080269 C25.76221911 336.27110655 37.99713195 339.27058959 49.30859375 349.71875 C57.0943253 357.88958225 61.23160947 368.77583586 61.34375 380.00390625 C60.22665314 403.65843235 42.34083705 418.04596826 26.5625 433.625 C18.47469901 441.50337396 18.47469901 441.50337396 10.859375 449.828125 C5.19023328 456.47601216 -1.22620561 462.46604482 -7.43554688 468.60253906 C-15.03191315 476.03058868 -15.03191315 476.03058868 -22.1875 483.875 C-27.83561941 490.51084473 -34.24251391 496.48216179 -40.43554688 502.60253906 C-48.03191315 510.03058868 -48.03191315 510.03058868 -55.1875 517.875 C-60.83561941 524.51084473 -67.24251391 530.48216179 -73.43554688 536.60253906 C-81.0175138 544.01391286 -81.0175138 544.01391286 -88.15625 551.84375 C-93.98721567 558.69441656 -100.61629827 564.85528405 -107.00830078 571.17529297 C-115.65445965 579.72610941 -115.65445965 579.72610941 -123.79101562 588.75585938 C-129.0510692 594.63346816 -134.82734381 600.06013056 -140.43554688 605.60253906 C-148.03191315 613.03058868 -148.03191315 613.03058868 -155.1875 620.875 C-160.83561941 627.51084473 -167.24251391 633.48216179 -173.43554688 639.60253906 C-181.03191315 647.03058868 -181.03191315 647.03058868 -188.1875 654.875 C-193.83561941 661.51084473 -200.24251391 667.48216179 -206.43554688 673.60253906 C-214.02111177 681.01808335 -214.02111177 681.01808335 -221.1640625 688.8515625 C-226.40479218 695.01047061 -232.31601491 700.56922479 -238.0625 706.25 C-240.42734331 708.58827915 -242.78886242 710.92984369 -245.1484375 713.2734375 C-245.6900351 713.80673676 -246.23163269 714.34003601 -246.78964233 714.88949585 C-249.58963794 717.61514611 -249.58963794 717.61514611 -251.6875 720.875 C-252.3475 720.875 -253.0075 720.875 -253.6875 720.875 C-253.96020218 721.47334656 -254.23290436 722.07169312 -254.51387024 722.68817139 C-255.6575961 724.81927996 -256.75346894 726.17822739 -258.46557617 727.86425781 C-259.30236153 728.69597504 -259.30236153 728.69597504 -260.15605164 729.54449463 C-260.75810928 730.13309265 -261.36016693 730.72169067 -261.98046875 731.328125 C-262.60472244 731.94717712 -263.22897614 732.56622925 -263.87214661 733.20404053 C-265.8683997 735.18251147 -267.871188 737.15418743 -269.875 739.125 C-272.49687082 741.710141 -275.1155518 744.29845008 -277.73046875 746.890625 C-278.36169647 747.51626343 -278.99292419 748.14190186 -279.64328003 748.78649902 C-283.20466723 752.33619164 -286.58804978 755.96055946 -289.8371582 759.79980469 C-295.0715741 765.67030675 -300.84336203 771.07596086 -306.43554688 776.60253906 C-312.0521107 782.15908337 -317.61870167 787.67299269 -322.74658203 793.68945312 C-327.07887861 798.56778256 -331.71487308 803.16702184 -336.31176758 807.79443359 C-337.52329124 809.01753907 -338.73031855 810.24511432 -339.93286133 811.47705078 C-341.69410762 813.28116086 -343.46841753 815.07146865 -345.24609375 816.859375 C-345.77343613 817.40422546 -346.3007785 817.94907593 -346.84410095 818.51043701 C-353.3058591 824.93565536 -360.28195033 827.7473317 -369.3125 828.1875 C-378.60967849 828.03554017 -386.0737561 824.55372399 -392.7421875 818.16015625 C-398.33459631 811.59076036 -401.11200472 803.84610855 -400.96411133 795.21899414 C-399.84799632 785.76107691 -395.0725135 777.47046143 -390.1875 769.5 C-388.92705474 767.39350019 -387.66929563 765.28539105 -386.4140625 763.17578125 C-385.78661133 762.12342285 -385.15916016 761.07106445 -384.51269531 759.98681641 C-381.75174888 755.27961694 -379.14955945 750.4918545 -376.5625 745.6875 C-372.25932934 737.71974409 -367.84095953 729.83018717 -363.32763672 721.97973633 C-359.39827972 715.13868379 -355.53346855 708.26323908 -351.6875 701.375 C-345.42521253 690.1670062 -339.07438894 679.01232677 -332.6875 667.875 C-323.73041998 652.24971405 -314.82735227 636.59829782 -306.04296875 620.875 C-297.69533371 605.93636687 -289.23007764 591.06529456 -280.72769165 576.21435547 C-274.76924302 565.80322649 -268.8936514 555.34704869 -263.04296875 544.875 C-256.35843721 532.91259821 -249.6140483 520.98386506 -242.80859375 509.08984375 C-242.47214844 508.5018248 -242.13570312 507.91380585 -241.7890625 507.30796814 C-240.17652239 504.49027634 -238.56249019 501.67346905 -236.94580078 498.8581543 C-232.38392935 490.8968751 -227.89211904 482.89758071 -223.41186523 474.89013672 C-222.75750796 473.72105108 -222.10312733 472.55197852 -221.44872284 471.38291931 C-219.86141966 468.54707421 -218.27435159 465.71109781 -216.6875 462.875 C-218.04337172 462.87141747 -218.04337172 462.87141747 -219.42663479 462.86776257 C-241.43616371 462.80858779 -263.44558336 462.73302175 -285.45499325 462.63928509 C-296.09864753 462.59434838 -306.7422685 462.55492876 -317.38598633 462.52856445 C-326.66467749 462.50556722 -335.94326308 462.47214982 -345.22187048 462.42629844 C-350.13334656 462.40238958 -355.04471823 462.38364546 -359.95625114 462.37738609 C-364.58311457 462.37132471 -369.20971094 462.3512867 -373.83647537 462.32072449 C-375.53069896 462.31196116 -377.22495748 462.30821814 -378.9192028 462.30999184 C-391.58272614 462.31906 -400.8382699 461.5805063 -410.44921875 452.41796875 C-415.7921436 446.34773476 -418.31051542 439.68155336 -418.9375 431.6875 C-418.06834354 418.43286404 -410.70931872 409.50915167 -401.75 400.3125 C-400.38531786 398.89587944 -399.02202743 397.47791683 -397.66015625 396.05859375 C-396.66290527 395.01928711 -396.66290527 395.01928711 -395.64550781 393.95898438 C-393.134051 391.28594256 -390.72919498 388.52973712 -388.32885742 385.75708008 C-385.88127008 382.95052783 -383.34985446 380.22521177 -380.8125 377.5 C-376.4888584 372.83666777 -372.20931547 368.13803824 -367.96484375 363.40234375 C-365.38940225 360.54417797 -362.79064236 357.70789739 -360.1875 354.875 C-356.83456883 351.22572829 -353.49751643 347.56330402 -350.1875 343.875 C-346.41212783 339.66815673 -342.59769552 335.49825147 -338.7734375 331.3359375 C-335.89327393 328.19832914 -333.03218386 325.04479059 -330.1875 321.875 C-324.11146473 315.10703188 -317.94931288 308.41779743 -311.7890625 301.7265625 C-305.95538095 295.38971492 -305.95538095 295.38971492 -300.25 288.9375 C-296.66745191 284.80511239 -292.94782872 280.8040721 -289.23071289 276.79321289 C-286.19008406 273.50997817 -283.17337504 270.20832232 -280.1875 266.875 C-276.68395613 262.96377103 -273.13165551 259.10116286 -269.5625 255.25 C-266.39282707 251.82864088 -263.2390448 248.4028835 -260.1875 244.875 C-255.6671255 239.6524314 -250.93621023 234.62151347 -246.24267578 229.55517578 C-238.17726168 220.86777934 -238.17726168 220.86777934 -230.3125 212 C-226.47130498 207.56499705 -222.44980955 203.29987832 -218.44799805 199.01049805 C-215.07901883 195.39293584 -211.78056487 191.73098336 -208.55078125 187.98828125 C-205.50495671 184.53379262 -202.3606411 181.17044448 -199.23022461 177.79272461 C-196.18979013 174.50962412 -193.17322136 171.20815075 -190.1875 167.875 C-186.68395613 163.96377103 -183.13165551 160.10116286 -179.5625 156.25 C-176.39282707 152.82864088 -173.2390448 149.4028835 -170.1875 145.875 C-165.66439941 140.64928184 -160.93036265 135.61566819 -156.23388672 130.54638672 C-149.7687425 123.55864164 -143.3583818 116.52255401 -137 109.4375 C-133.94459826 106.05178456 -130.85893016 102.6941809 -127.7734375 99.3359375 C-124.89327393 96.19832914 -122.03218386 93.04479059 -119.1875 89.875 C-115.41212783 85.66815673 -111.59769552 81.49825147 -107.7734375 77.3359375 C-104.89327393 74.19832914 -102.03218386 71.04479059 -99.1875 67.875 C-95.41212783 63.66815673 -91.59769552 59.49825147 -87.7734375 55.3359375 C-84.89327393 52.19832914 -82.03218386 49.04479059 -79.1875 45.875 C-75.41212783 41.66815673 -71.59769552 37.49825147 -67.7734375 33.3359375 C-64.89327393 30.19832914 -62.03218386 27.04479059 -59.1875 23.875 C-55.78702163 20.08921563 -52.37042403 16.3188489 -48.9375 12.5625 C-47.61492187 11.11423828 -47.61492187 11.11423828 -46.265625 9.63671875 C-33.42870404 -4.11434658 -17.50915439 -11.04835288 0 0 Z M-26.6875 35.875 C-27.20957031 36.45765625 -27.73164062 37.0403125 -28.26953125 37.640625 C-32.55051725 42.40893866 -36.85191939 47.15635299 -41.1875 51.875 C-44.54041384 55.52428799 -47.87748335 59.18669574 -51.1875 62.875 C-54.96287217 67.08184327 -58.77730448 71.25174853 -62.6015625 75.4140625 C-65.48172607 78.55167086 -68.34281614 81.70520941 -71.1875 84.875 C-74.9635626 89.08261261 -78.77854007 93.25342372 -82.60375977 97.41625977 C-85.46352204 100.53133125 -88.30265359 103.66351675 -91.125 106.8125 C-94.65066619 110.74326966 -98.22360521 114.62714382 -101.8125 118.5 C-104.98215405 121.92137778 -108.13595434 125.34711551 -111.1875 128.875 C-114.74635254 132.98938074 -118.44721408 136.96758038 -122.14453125 140.95703125 C-125.18506291 144.24019885 -128.2017018 147.54176346 -131.1875 150.875 C-134.65239833 154.74162567 -138.16054568 158.56513786 -141.6875 162.375 C-145.96727624 166.99850101 -150.20508655 171.65592388 -154.41015625 176.34765625 C-156.98559775 179.20582203 -159.58435764 182.04210261 -162.1875 184.875 C-165.54043117 188.52427171 -168.87748357 192.18669598 -172.1875 195.875 C-175.96287217 200.08184327 -179.77730448 204.25174853 -183.6015625 208.4140625 C-186.48172607 211.55167086 -189.34281614 214.70520941 -192.1875 217.875 C-195.96287217 222.08184327 -199.77730448 226.25174853 -203.6015625 230.4140625 C-206.48172607 233.55167086 -209.34281614 236.70520941 -212.1875 239.875 C-215.96287217 244.08184327 -219.77730448 248.25174853 -223.6015625 252.4140625 C-226.48172607 255.55167086 -229.34281614 258.70520941 -232.1875 261.875 C-238.26353527 268.64296812 -244.42568712 275.33220257 -250.5859375 282.0234375 C-256.41961905 288.36028508 -256.41961905 288.36028508 -262.125 294.8125 C-265.70687309 298.944109 -269.42587958 302.94429927 -273.14208984 306.95458984 C-276.93637039 311.05193929 -280.68296447 315.18910773 -284.41015625 319.34765625 C-286.98559775 322.20582203 -289.58435764 325.04210261 -292.1875 327.875 C-295.54043117 331.52427171 -298.87748357 335.18669598 -302.1875 338.875 C-305.9635626 343.08261261 -309.77854007 347.25342372 -313.60375977 351.41625977 C-316.46352204 354.53133125 -319.30265359 357.66351675 -322.125 360.8125 C-326.12198378 365.2670991 -330.17824409 369.66418479 -334.24365234 374.05615234 C-338.0022798 378.12111811 -341.71499843 382.22484906 -345.41015625 386.34765625 C-347.98559775 389.20582203 -350.58435764 392.04210261 -353.1875 394.875 C-357.27488261 399.32363583 -361.32959409 403.79989286 -365.359375 408.30078125 C-367.0652361 410.18695989 -368.78195674 412.05771704 -370.515625 413.91796875 C-371.00095703 414.44068359 -371.48628906 414.96339844 -371.98632812 415.50195312 C-373.35772335 416.97671057 -374.73341877 418.44746582 -376.109375 419.91796875 C-378.01175275 422.09993838 -379.68876516 424.20706468 -381.34863281 426.55981445 C-381.78943176 427.18281937 -382.23023071 427.80582428 -382.68438721 428.44770813 C-383.01541443 428.91871445 -383.34644165 429.38972076 -383.6875 429.875 C-382.33301097 429.87719984 -382.33301097 429.87719984 -380.95115852 429.87944412 C-358.95795244 429.91652979 -336.96490024 429.97556797 -314.97181892 430.05890274 C-304.33602782 430.09867633 -293.70031053 430.13107739 -283.06445312 430.14599609 C-273.79195673 430.15902128 -264.51962287 430.18600818 -255.24721801 430.22961307 C-250.33959042 430.25220827 -245.43216314 430.26791184 -240.52447891 430.26688385 C-235.90001104 430.2661361 -231.27598565 430.28413319 -226.65163231 430.31616783 C-224.95944297 430.32464817 -223.2672039 430.32642949 -221.57500267 430.32080269 C-209.49456422 430.28600109 -199.49912916 431.28611096 -190.375 439.96875 C-184.61222316 446.47855346 -182.65985722 454.85808833 -182.69921875 463.42578125 C-183.79466577 472.80110053 -189.09369192 480.83336607 -193.6875 488.875 C-194.14479492 489.68259766 -194.60208984 490.49019531 -195.07324219 491.32226562 C-197.53927543 495.67728373 -200.02269007 500.02195141 -202.51953125 504.359375 C-205.74981083 509.97359891 -208.9413573 515.60922837 -212.125 521.25 C-212.66479492 522.20600098 -213.20458984 523.16200195 -213.76074219 524.14697266 C-214.8561064 526.08715526 -215.95132099 528.02742235 -217.04638672 529.96777344 C-220.30114075 535.73355906 -223.56030753 541.49685158 -226.81884766 547.26049805 C-229.49188988 551.98895683 -232.1635916 556.71816084 -234.83203125 561.44921875 C-241.06793163 572.50074327 -247.34448765 583.52824365 -253.65005493 594.54013062 C-258.95572281 603.80921311 -264.19422524 613.11432576 -269.39819336 622.44091797 C-274.11261163 630.87794702 -278.90259172 639.27042561 -283.70800781 647.65576172 C-288.41406593 655.86993124 -293.07479509 664.10793754 -297.6875 672.375 C-302.96701424 681.8371431 -308.32059623 691.25485739 -313.70800781 700.65576172 C-318.41406601 708.86993138 -323.07478414 717.10794348 -327.6875 725.375 C-332.39725868 733.81576957 -337.15553404 742.22690699 -341.95730591 750.61553955 C-342.98596463 752.41297518 -344.01352633 754.21103354 -345.04077148 756.00927734 C-347.92548787 761.05690694 -350.81529778 766.10106094 -353.734375 771.12890625 C-354.57300623 772.58588595 -355.41155644 774.04291229 -356.25 775.5 C-356.62616455 776.13881104 -357.0023291 776.77762207 -357.38989258 777.43579102 C-358.21745407 778.88192971 -358.96318774 780.37448446 -359.6875 781.875 C-359.3575 782.535 -359.0275 783.195 -358.6875 783.875 C-355.82903993 781.04597124 -352.97655016 778.21099221 -350.125 775.375 C-348.92520508 774.18777344 -348.92520508 774.18777344 -347.70117188 772.9765625 C-344.15113247 769.44101306 -340.65842064 765.91028526 -337.41015625 762.09375 C-331.66116851 755.40341242 -325.20902187 749.34347608 -318.93945312 743.14746094 C-311.35444129 735.73314534 -311.35444129 735.73314534 -304.21484375 727.8984375 C-301.09724518 724.23350366 -297.7328245 720.85964837 -294.31640625 717.4765625 C-293.74473724 716.91040222 -293.17306824 716.34424194 -292.58407593 715.76092529 C-290.19701004 713.40164448 -287.80627452 711.04615506 -285.41137695 708.69482422 C-283.64624547 706.95970636 -281.88723315 705.21857159 -280.12890625 703.4765625 C-279.58214737 702.94326324 -279.03538849 702.40996399 -278.47206116 701.86050415 C-277.17221482 700.56947777 -275.92428457 699.22655967 -274.6875 697.875 C-274.6875 697.215 -274.6875 696.555 -274.6875 695.875 C-274.0275 695.875 -273.3675 695.875 -272.6875 695.875 C-271.28927029 694.49207981 -271.28927029 694.49207981 -269.8125 692.625 C-266.69631536 688.96041848 -263.41324448 685.51130794 -260 682.125 C-259.49009521 681.61839844 -258.98019043 681.11179687 -258.45483398 680.58984375 C-256.33463233 678.48775222 -254.20967742 676.39049507 -252.08496094 674.29296875 C-244.95944441 667.31201186 -244.95944441 667.31201186 -238.25 659.9375 C-232.57388159 653.28558399 -226.15422482 647.2893219 -219.93945312 641.14746094 C-212.34308685 633.71941132 -212.34308685 633.71941132 -205.1875 625.875 C-199.53938059 619.23915527 -193.13248609 613.26783821 -186.93945312 607.14746094 C-179.34308685 599.71941132 -179.34308685 599.71941132 -172.1875 591.875 C-166.53938059 585.23915527 -160.13248609 579.26783821 -153.93945312 573.14746094 C-146.34308685 565.71941132 -146.34308685 565.71941132 -139.1875 557.875 C-133.53938059 551.23915527 -127.13248609 545.26783821 -120.93945312 539.14746094 C-113.34308685 531.71941132 -113.34308685 531.71941132 -106.1875 523.875 C-100.53938059 517.23915527 -94.13248609 511.26783821 -87.93945312 505.14746094 C-80.34004639 497.71646679 -80.34004639 497.71646679 -73.18359375 489.8671875 C-70.14191541 486.29150269 -66.86899375 482.99535432 -63.53515625 479.6953125 C-62.71088638 478.87930573 -62.71088638 478.87930573 -61.8699646 478.04681396 C-59.57852437 475.78314751 -57.28339777 473.5232947 -54.98413086 471.26757812 C-53.28849814 469.6019587 -51.59898699 467.93032413 -49.91015625 466.2578125 C-49.38527115 465.74638702 -48.86038605 465.23496155 -48.31959534 464.70803833 C-47.07054841 463.46782171 -45.87347483 462.17566105 -44.6875 460.875 C-44.6875 460.215 -44.6875 459.555 -44.6875 458.875 C-44.0275 458.875 -43.3675 458.875 -42.6875 458.875 C-41.30434261 457.50444981 -41.30434261 457.50444981 -39.83984375 455.6484375 C-36.64044627 451.8841477 -33.26745713 448.38022001 -29.75390625 444.9140625 C-29.227435 444.39326111 -28.70096375 443.87245972 -28.15853882 443.33587646 C-25.96209595 441.1664939 -23.76150681 439.00140206 -21.55688477 436.84033203 C-19.93075081 435.24421101 -18.31074105 433.64207677 -16.69140625 432.0390625 C-16.18839493 431.5495108 -15.68538361 431.05995911 -15.16712952 430.55557251 C-13.96888007 429.36616463 -12.82266637 428.12475604 -11.6875 426.875 C-11.6875 426.215 -11.6875 425.555 -11.6875 424.875 C-11.0275 424.875 -10.3675 424.875 -9.6875 424.875 C-8.28942039 423.48977352 -8.28942039 423.48977352 -6.8125 421.62109375 C-3.70176511 417.96211598 -0.41806775 414.53012387 3 411.16015625 C3.50990479 410.65592133 4.01980957 410.1516864 4.54516602 409.63217163 C6.6642538 407.53994679 8.78725174 405.45178558 10.91503906 403.3684082 C22.88921992 393.10402927 22.88921992 393.10402927 29 379.625 C28.23868053 375.47234835 27.35899399 373.75224432 24.3125 370.875 C20.80652943 368.60852871 17.83228983 368.62461013 13.71066284 368.6234436 C13.04868177 368.62047346 12.38670069 368.61750333 11.70465958 368.61444318 C9.48775126 368.60680837 7.27110831 368.6132951 5.05419922 368.61962891 C3.46394165 368.61687865 1.87368547 368.61319855 0.28343201 368.60865784 C-3.14163188 368.60054511 -6.56663047 368.59837762 -9.99170303 368.60060501 C-15.41362076 368.60343915 -20.83540827 368.58908089 -26.2572937 368.57162476 C-41.67541537 368.52461204 -57.0935286 368.5006684 -72.51171875 368.49414062 C-81.02685741 368.49038329 -89.54184905 368.47229747 -98.0569247 368.43904626 C-103.43996644 368.41888401 -108.82262763 368.416437 -114.20569158 368.42732644 C-117.5659401 368.42994452 -120.92596987 368.41587568 -124.28616142 368.39724541 C-125.83646151 368.39194912 -127.38680254 368.39337605 -128.93708611 368.40228081 C-139.94802859 368.46039009 -149.73436485 367.50381405 -158.15234375 359.72265625 C-164.97571883 351.51029897 -166.62996294 342.2420923 -165.6875 331.875 C-163.44438676 322.7466087 -158.4688824 314.28822962 -154.23632812 305.95556641 C-150.61598569 298.8128243 -147.20827136 291.59303818 -143.875 284.3125 C-138.02264233 271.5625913 -131.87398335 258.96568921 -125.6875 246.375 C-119.71539839 234.2186818 -113.76306315 222.06570898 -108.125 209.75 C-101.32934955 194.90807099 -94.10825638 180.27687555 -86.92532349 165.61972046 C-86.48461517 164.72040802 -86.04390686 163.82109558 -85.58984375 162.89453125 C-84.9390535 161.56671127 -84.9390535 161.56671127 -84.27511597 160.21206665 C-79.76789444 151.0093842 -75.34341167 141.76849948 -70.94433594 132.51367188 C-68.55792579 127.50350854 -66.1527385 122.50234728 -63.75 117.5 C-62.99626099 115.92955933 -62.99626099 115.92955933 -62.22729492 114.32739258 C-59.76341711 109.19428083 -57.29668172 104.0625761 -54.82421875 98.93359375 C-48.17386097 85.12582934 -41.62075264 71.27459699 -35.11816406 57.39672852 C-34.78947327 56.69613815 -34.46078247 55.99554779 -34.12213135 55.27372742 C-33.48792581 53.92184769 -32.85455719 52.56957496 -32.22210693 51.21687317 C-30.60513292 47.77148871 -28.9254093 44.37333678 -27.15625 41.00390625 C-26.42921875 39.45509766 -26.42921875 39.45509766 -25.6875 37.875 C-26.0175 37.215 -26.3475 36.555 -26.6875 35.875 Z " fill="#01CA9F" transform="translate(698.6875,265.125)"/>
</svg>
