<?xml version="1.0" encoding="UTF-8"?>
<!DOCTYPE svg PUBLIC "-//W3C//DTD SVG 1.1//EN" "http://www.w3.org/Graphics/SVG/1.1/DTD/svg11.dtd">
<svg xmlns="http://www.w3.org/2000/svg" version="1.1" width="1080px" height="1350px" style="shape-rendering:geometricPrecision; text-rendering:geometricPrecision; image-rendering:optimizeQuality; fill-rule:evenodd; clip-rule:evenodd" xmlns:xlink="http://www.w3.org/1999/xlink">
<g><path style="opacity:1" fill="#02c89c" d="M 638.5,704.5 C 635.416,699.934 631.416,695.768 626.5,692C 627.833,690.16 627.666,689.66 626,690.5C 624.513,689.747 624.346,688.914 625.5,688C 622.898,687.065 621.398,685.232 621,682.5C 620.667,682.833 620.333,683.167 620,683.5C 618.214,680.711 616.048,678.211 613.5,676C 613.957,675.586 614.291,675.086 614.5,674.5C 613.726,673.289 612.893,673.289 612,674.5C 611.667,673.167 611.333,671.833 611,670.5C 610.086,671.654 609.253,671.487 608.5,670C 608.833,669.667 609.167,669.333 609.5,669C 608.552,668.517 607.552,668.351 606.5,668.5C 606.762,667.022 606.429,665.689 605.5,664.5C 604.167,663.5 602.833,662.5 601.5,661.5C 602.855,660.325 602.688,659.325 601,658.5C 600.667,658.833 600.333,659.167 600,659.5C 599.004,657.256 597.504,655.423 595.5,654C 596.654,653.086 596.487,652.253 595,651.5C 594.667,651.833 594.333,652.167 594,652.5C 593.487,650.479 592.32,648.979 590.5,648C 591.654,647.086 591.487,646.253 590,645.5C 589.667,645.833 589.333,646.167 589,646.5C 588.51,645.207 588.343,643.873 588.5,642.5C 587.5,642.5 586.5,642.5 585.5,642.5C 585.649,641.448 585.483,640.448 585,639.5C 583.334,640.34 583.167,639.84 584.5,638C 579.198,634.507 574.865,629.673 571.5,623.5C 570.719,621.678 569.552,621.011 568,621.5C 564.734,625.421 560.901,629.421 556.5,633.5C 555.167,633.833 555.167,634.167 556.5,634.5C 555.265,636.957 553.265,638.29 550.5,638.5C 550.64,640.124 549.973,641.29 548.5,642C 548.833,642.333 549.167,642.667 549.5,643C 548.167,643.667 546.833,644.333 545.5,645C 545.833,645.333 546.167,645.667 546.5,646C 545.04,647.582 543.373,648.915 541.5,650C 541.833,650.333 542.167,650.667 542.5,651C 539.468,653.84 536.468,656.674 533.5,659.5C 532.167,659.833 532.167,660.167 533.5,660.5C 532.737,661.268 531.737,661.768 530.5,662C 531.654,662.914 531.487,663.747 530,664.5C 529.333,663.167 528.667,663.167 528,664.5C 527.682,666.061 526.849,667.228 525.5,668C 525.833,668.333 526.167,668.667 526.5,669C 523.486,671.019 520.82,673.352 518.5,676C 518.833,676.333 519.167,676.667 519.5,677C 517.175,679.291 514.842,681.624 512.5,684C 511.376,684.249 510.376,684.749 509.5,685.5C 509.624,686.107 509.957,686.44 510.5,686.5C 509.737,687.268 508.737,687.768 507.5,688C 507.833,688.333 508.167,688.667 508.5,689C 504.602,693.823 500.269,698.156 495.5,702C 495.833,702.333 496.167,702.667 496.5,703C 494.934,703.608 493.6,704.442 492.5,705.5C 491.833,705.5 491.5,705.833 491.5,706.5C 489.678,707.281 489.011,708.448 489.5,710C 486.456,710.359 486.122,711.026 488.5,712C 487.047,714.114 485.047,715.448 482.5,716C 482.833,716.333 483.167,716.667 483.5,717C 480.84,720.486 477.84,723.653 474.5,726.5C 474.167,725.167 473.833,725.167 473.5,726.5C 471.014,727.462 471.014,728.295 473.5,729C 472.309,729.698 471.309,730.531 470.5,731.5C 470.167,730.167 469.833,730.167 469.5,731.5C 468.167,731.833 468.167,732.167 469.5,732.5C 464.201,738.455 458.534,744.789 452.5,751.5C 452.167,750.167 451.833,750.167 451.5,751.5C 450.167,751.833 450.167,752.167 451.5,752.5C 450.737,753.268 449.737,753.768 448.5,754C 449.28,755.073 449.113,756.24 448,757.5C 446.188,759.3 444.355,760.967 442.5,762.5C 442.167,761.167 441.833,761.167 441.5,762.5C 440.167,764.5 438.833,766.5 437.5,768.5C 437.167,767.167 436.833,767.167 436.5,768.5C 435.589,770.751 434.256,772.751 432.5,774.5C 431.5,775.5 430.5,776.5 429.5,777.5C 429.167,776.167 428.833,776.167 428.5,777.5C 427.167,777.833 427.167,778.167 428.5,778.5C 425.756,781.944 422.923,785.277 420,788.5C 418.22,790.794 416.053,792.461 413.5,793.5C 402.355,803.295 391.855,802.628 382,791.5C 356.98,752.777 331.48,714.443 305.5,676.5C 304.52,677.981 303.353,679.315 302,680.5C 301.667,680.167 301.333,679.833 301,679.5C 300.333,680.833 299.667,682.167 299,683.5C 298.086,682.346 297.253,682.513 296.5,684C 296.833,684.333 297.167,684.667 297.5,685C 295.693,686.602 293.693,687.936 291.5,689C 291.833,689.333 292.167,689.667 292.5,690C 283.392,698.428 274.892,707.261 267,716.5C 266.667,716.167 266.333,715.833 266,715.5C 225.822,757.042 184.655,799.542 142.5,843C 137.94,847.194 133.106,851.028 128,854.5C 116.254,853.656 113.588,847.99 120,837.5C 124.24,832.683 128.24,827.683 132,822.5C 188.839,761.994 245.339,701.16 301.5,640C 302.931,639.535 304.097,638.701 305,637.5C 306.333,637.5 307.667,637.5 309,637.5C 309.308,636.692 309.808,636.025 310.5,635.5C 312.958,636.919 315.625,637.919 318.5,638.5C 321.776,640.177 324.776,642.844 327.5,646.5C 328.641,647.425 328.641,648.259 327.5,649C 328.766,649.309 329.933,649.809 331,650.5C 332.346,653.928 334.179,656.928 336.5,659.5C 335.167,659.833 335.167,660.167 336.5,660.5C 339.827,662.47 341.661,665.47 342,669.5C 343.147,668.542 344.147,668.875 345,670.5C 346,672.833 347,675.167 348,677.5C 348.667,676.167 349.333,676.167 350,677.5C 351.128,679.345 351.628,681.345 351.5,683.5C 355.037,684.386 356.704,686.719 356.5,690.5C 357.675,690.281 358.675,690.614 359.5,691.5C 369.591,706.661 380.258,722.161 391.5,738C 390.346,738.914 390.513,739.747 392,740.5C 392.333,740.167 392.667,739.833 393,739.5C 394.903,741.441 395.736,743.774 395.5,746.5C 397.91,746.921 399.743,748.254 401,750.5C 428.962,720.162 455.462,690.829 480.5,662.5C 483.822,657.944 487.822,653.277 492.5,648.5C 493.628,647.738 494.795,647.071 496,646.5C 496.685,643.943 498.185,642.109 500.5,641C 500.167,640.667 499.833,640.333 499.5,640C 501.333,639.5 502.5,638.333 503,636.5C 503.333,636.833 503.667,637.167 504,637.5C 506.031,634.645 508.197,631.978 510.5,629.5C 511.558,628.4 512.392,627.066 513,625.5C 514.691,623.833 516.858,622.166 519.5,620.5C 520.333,618.833 521.167,617.167 522,615.5C 522.914,616.654 523.747,616.487 524.5,615C 524.167,614.667 523.833,614.333 523.5,614C 525.259,612.992 526.426,611.492 527,609.5C 530.475,605.695 534.309,602.195 538.5,599C 538.167,598.667 537.833,598.333 537.5,598C 539.844,597.163 541.844,595.829 543.5,594C 543.167,593.667 542.833,593.333 542.5,593C 544.348,591.482 545.848,589.649 547,587.5C 550.15,586.429 552.983,584.262 555.5,581C 555.167,580.667 554.833,580.333 554.5,580C 558.528,579.572 561.695,577.738 564,574.5C 566.74,574.761 569.406,574.761 572,574.5C 573.9,575.077 575.733,575.744 577.5,576.5C 579.277,577.6 581.277,578.434 583.5,579C 584.231,581.595 585.898,583.261 588.5,584C 587.346,584.914 587.513,585.747 589,586.5C 589.333,586.167 589.667,585.833 590,585.5C 590.977,587.706 592.143,589.706 593.5,591.5C 594.281,593.322 595.448,593.989 597,593.5C 598.44,598.005 601.606,601.672 606.5,604.5C 605.145,605.675 605.312,606.675 607,607.5C 607.333,607.167 607.667,606.833 608,606.5C 608.889,609.095 610.389,611.095 612.5,612.5C 612.821,614.048 613.821,614.715 615.5,614.5C 616.32,618.576 618.653,621.243 622.5,622.5C 623.127,626.636 625.46,629.47 629.5,631C 628.72,632.073 628.887,633.24 630,634.5C 630.333,634.167 630.667,633.833 631,633.5C 632.684,634.769 634.184,636.769 635.5,639.5C 636.008,641.233 636.841,641.566 638,640.5C 638.333,641.833 638.667,643.167 639,644.5C 639.333,644.167 639.667,643.833 640,643.5C 640.122,645.437 640.955,646.77 642.5,647.5C 647.343,651.488 651.51,656.155 655,661.5C 655.51,658.995 657.01,657.495 659.5,657C 662.364,651.742 667.03,646.742 673.5,642C 673.167,641.667 672.833,641.333 672.5,641C 674.205,638.523 676.205,637.189 678.5,637C 678.167,636.667 677.833,636.333 677.5,636C 694.339,617.557 710.506,599.723 726,582.5C 726.333,582.833 726.667,583.167 727,583.5C 729.24,580.179 731.573,576.846 734,573.5C 739.344,569.155 744.011,564.155 748,558.5C 748.667,559.833 749.333,559.833 750,558.5C 751.747,553.752 754.913,550.252 759.5,548C 759.167,547.667 758.833,547.333 758.5,547C 760.181,544.558 762.181,543.225 764.5,543C 763.833,542.667 763.167,542.333 762.5,542C 767.828,537.029 773.161,532.029 778.5,527C 780.423,522.708 783.756,519.041 788.5,516C 788.167,515.667 787.833,515.333 787.5,515C 788.667,514.5 789.5,513.667 790,512.5C 790.333,512.833 790.667,513.167 791,513.5C 792.359,510.962 794.026,508.629 796,506.5C 796.333,506.833 796.667,507.167 797,507.5C 798.433,502.402 801.6,498.902 806.5,497C 806.167,496.667 805.833,496.333 805.5,496C 811.2,490.719 816.2,485.552 820.5,480.5C 822.395,479.027 824.061,477.36 825.5,475.5C 826.839,472.553 828.506,470.553 830.5,469.5C 836.923,463.295 842.423,456.961 847,450.5C 849.344,449.066 851.844,447.066 854.5,444.5C 855.641,443.575 855.641,442.741 854.5,442C 855.833,441.333 857.167,440.667 858.5,440C 863.337,434.13 868.504,428.63 874,423.5C 874.943,420.891 876.61,418.891 879,417.5C 879.483,416.552 879.649,415.552 879.5,414.5C 864.888,419.155 849.721,424.488 834,430.5C 832.002,429.729 830.335,430.395 829,432.5C 826.618,431.134 824.452,431.467 822.5,433.5C 817.692,433.448 813.359,431.614 809.5,428C 809.833,427.667 810.167,427.333 810.5,427C 809.915,425.698 809.249,424.531 808.5,423.5C 807.912,421.795 807.579,420.128 807.5,418.5C 809.074,417.016 810.407,415.349 811.5,413.5C 834.025,401.573 856.525,392.24 879,385.5C 892.03,381.283 905.197,377.45 918.5,374C 928.129,372.064 934.962,375.564 939,384.5C 939.908,393.474 941.074,402.307 942.5,411C 943.076,420.394 942.41,430.394 940.5,441C 940.721,442.799 941.054,444.632 941.5,446.5C 940.209,456.701 938.876,466.867 937.5,477C 938.323,482.699 937.489,488.532 935,494.5C 928.277,501.869 920.777,503.369 912.5,499C 909.67,494.674 907.67,490.008 906.5,485C 907.604,472.395 908.937,459.562 910.5,446.5C 909.943,444.765 909.61,443.098 909.5,441.5C 829.401,529.773 749.401,618.273 669.5,707C 664.379,710.533 658.712,712.7 652.5,713.5C 651.304,713.154 651.304,712.654 652.5,712C 650.765,711.349 649.098,711.515 647.5,712.5C 644.697,709.601 641.697,706.934 638.5,704.5 Z M 432.5,774.5 C 429.999,774.489 429.832,773.822 432,772.5C 432.464,773.094 432.631,773.761 432.5,774.5 Z"/></g>
<g><path style="opacity:1" fill="#007d7c" d="M 808.5,423.5 C 807.833,424.167 807.833,424.167 808.5,423.5 Z"/></g>
<g><path style="opacity:1" fill="#00faf9" d="M 830.5,469.5 C 829.833,468.167 829.833,468.167 830.5,469.5 Z"/></g>
<g><path style="opacity:1" fill="#007cfa" d="M 825.5,475.5 C 824.833,474.167 824.833,474.167 825.5,475.5 Z"/></g>
<g><path style="opacity:1" fill="#00faf9" d="M 820.5,480.5 C 819.833,479.167 819.833,479.167 820.5,480.5 Z"/></g>
<g><path style="opacity:1" fill="#00a8a7" d="M 577.5,575.5 C 578.833,576.167 578.833,576.167 577.5,575.5 Z"/></g>
<g><path style="opacity:1" fill="#00faf9" d="M 593.5,590.5 C 594.833,591.167 594.833,591.167 593.5,590.5 Z"/></g>
<g><path style="opacity:1" fill="#00fa00" d="M 612.5,611.5 C 613.833,612.167 613.833,612.167 612.5,611.5 Z"/></g>
<g><path style="opacity:1" fill="#00fa7c" d="M 571.5,623.5 C 570.833,624.167 570.833,624.167 571.5,623.5 Z"/></g>
<g><path style="opacity:1" fill="#00faf9" d="M 623.5,624.5 C 624.833,625.167 624.833,625.167 623.5,624.5 Z"/></g>
<g><path style="opacity:1" fill="#00faf9" d="M 510.5,629.5 C 509.833,628.167 509.833,628.167 510.5,629.5 Z"/></g>
<g><path style="opacity:1" fill="#000000" d="M 504.5,633.5 C 505.833,634.167 505.833,634.167 504.5,633.5 Z"/></g>
<g><path style="opacity:1" fill="#00fa7c" d="M 556.5,633.5 C 557.833,634.167 557.833,634.167 556.5,633.5 Z"/></g>
<g><path style="opacity:1" fill="#00faf9" d="M 635.5,638.5 C 636.833,639.167 636.833,639.167 635.5,638.5 Z"/></g>
<g><path style="opacity:1" fill="#00faf9" d="M 551.5,639.5 C 552.833,640.167 552.833,640.167 551.5,639.5 Z"/></g>
<g><path style="opacity:1" fill="#007d7c" d="M 642.5,646.5 C 643.833,647.167 643.833,647.167 642.5,646.5 Z"/></g>
<g><path style="opacity:1" fill="#0000fa" d="M 336.5,659.5 C 337.833,660.167 337.833,660.167 336.5,659.5 Z"/></g>
<g><path style="opacity:1" fill="#00faf9" d="M 533.5,659.5 C 534.833,660.167 534.833,660.167 533.5,659.5 Z"/></g>
<g><path style="opacity:1" fill="#00faf9" d="M 480.5,662.5 C 479.833,661.167 479.833,661.167 480.5,662.5 Z"/></g>
<g><path style="opacity:1" fill="#00faf9" d="M 528.5,665.5 C 529.833,666.167 529.833,666.167 528.5,665.5 Z"/></g>
<g><path style="opacity:1" fill="#0050a8" d="M 510.5,685.5 C 511.833,686.167 511.833,686.167 510.5,685.5 Z"/></g>
<g><path style="opacity:1" fill="#007cfa" d="M 638.5,704.5 C 637.833,705.167 637.833,705.167 638.5,704.5 Z"/></g>
<g><path style="opacity:1" fill="#00faf9" d="M 492.5,705.5 C 493.833,706.167 493.833,706.167 492.5,705.5 Z"/></g>
<g><path style="opacity:1" fill="#00faf9" d="M 491.5,706.5 C 491.833,706.5 492.167,706.5 492.5,706.5C 492.315,707.17 491.981,707.17 491.5,706.5 Z"/></g>
<g><path style="opacity:1" fill="#00faf9" d="M 473.5,726.5 C 473.833,726.5 474.167,726.5 474.5,726.5C 474.315,727.17 473.981,727.17 473.5,726.5 Z"/></g>
<g><path style="opacity:1" fill="#007d7c" d="M 469.5,731.5 C 469.833,731.5 470.167,731.5 470.5,731.5C 470.315,732.17 469.981,732.17 469.5,731.5 Z"/></g>
<g><path style="opacity:1" fill="#00a8a7" d="M 451.5,751.5 C 451.833,751.5 452.167,751.5 452.5,751.5C 452.315,752.17 451.981,752.17 451.5,751.5 Z"/></g>
<g><path style="opacity:1" fill="#00faf9" d="M 441.5,762.5 C 441.833,762.5 442.167,762.5 442.5,762.5C 442.315,763.17 441.981,763.17 441.5,762.5 Z"/></g>
<g><path style="opacity:1" fill="#007d7c" d="M 436.5,768.5 C 436.833,768.5 437.167,768.5 437.5,768.5C 437.315,769.17 436.981,769.17 436.5,768.5 Z"/></g>
<g><path style="opacity:1" fill="#00faf9" d="M 428.5,777.5 C 428.833,777.5 429.167,777.5 429.5,777.5C 429.315,778.17 428.981,778.17 428.5,777.5 Z"/></g>
<g><path style="opacity:1" fill="#00fa7c" d="M 413.5,793.5 C 414.833,794.167 414.833,794.167 413.5,793.5 Z"/></g>
</svg>
